{
  "accessors": [
    {
      "bufferView": 2,
      "componentType": 5126,
      "count": 13204,
      "max": [
        2.2414636611938477,
        7.853332996368408,
        2.4804320335388184
      ],
      "min": [
        -2.2414636611938477,
        0.007361911237239838,
        -2.480431318283081
      ],
      "type": "VEC3"
    },
    {
      "bufferView": 2,
      "byteOffset": 158448,
      "componentType": 5126,
      "count": 13204,
      "max": [
        1.0,
        1.0,
        1.0
      ],
      "min": [
        -1.0,
        -1.0,
        -1.0
      ],
      "type": "VEC3"
    },
    {
      "bufferView": 3,
      "componentType": 5126,
      "count": 13204,
      "max": [
        1.0,
        1.0,
        1.0,
        1.0
      ],
      "min": [
        -1.0,
        -1.0,
        -1.0,
        -1.0
      ],
      "type": "VEC4"
    },
    {
      "bufferView": 1,
      "componentType": 5126,
      "count": 13204,
      "max": [
        0.9922739863395691,
        0.993008017539978
      ],
      "min": [
        0.008853999897837639,
        0.007962999865412712
      ],
      "type": "VEC2"
    },
    {
      "bufferView": 0,
      "componentType": 5125,
      "count": 64134,
      "type": "SCALAR"
    }
  ],
  "asset": {
    "extras": {
      "author": "epilogueronin (https://sketchfab.com/epilogueronin)",
      "license": "CC-BY-4.0 (http://creativecommons.org/licenses/by/4.0/)",
      "source": "https://sketchfab.com/3d-models/weathered-penguin-bot-33afc2b450dd4c188b307c82f3b2cbc3",
      "title": "Weathered penguin-bot"
    },
    "generator": "Sketchfab-10.87.0",
    "version": "2.0"
  },
  "bufferViews": [
    {
      "buffer": 0,
      "byteLength": 256536,
      "name": "floatBufferViews",
      "target": 34963
    },
    {
      "buffer": 0,
      "byteLength": 105632,
      "byteOffset": 256536,
      "byteStride": 8,
      "name": "floatBufferViews",
      "target": 34962
    },
    {
      "buffer": 0,
      "byteLength": 316896,
      "byteOffset": 362168,
      "byteStride": 12,
      "name": "floatBufferViews",
      "target": 34962
    },
    {
      "buffer": 0,
      "byteLength": 211264,
      "byteOffset": 679064,
      "byteStride": 16,
      "name": "floatBufferViews",
      "target": 34962
    }
  ],
  "buffers": [
    {
      "byteLength": 890328,
      "uri": "scene.bin"
    }
  ],
  "extensionsUsed": [
    "KHR_materials_transmission"
  ],
  "images": [
    {
      "uri": "textures/penguinobjinitialShadingGroup1_baseColor.png"
    },
    {
      "uri": "textures/penguinobjinitialShadingGroup1_metallicRoughness.png"
    },
    {
      "uri": "textures/penguinobjinitialShadingGroup1_normal.png"
    },
    {
      "uri": "textures/penguinobjinitialShadingGroup1_transmission.png"
    }
  ],
  "materials": [
    {
      "alphaCutoff": 0.20802734566149297,
      "alphaMode": "MASK",
      "doubleSided": true,
      "extensions": {
        "KHR_materials_transmission": {
          "transmissionFactor": 1.0,
          "transmissionTexture": {
            "index": 3
          }
        }
      },
      "name": "penguinobjinitialShadingGroup1",
      "normalTexture": {
        "index": 2
      },
      "pbrMetallicRoughness": {
        "baseColorTexture": {
          "index": 0
        },
        "metallicRoughnessTexture": {
          "index": 1
        }
      }
    }
  ],
  "meshes": [
    {
      "name": "penguinobj:penguin19_penguinobj:initialShadingGroup1_0",
      "primitives": [
        {
          "attributes": {
            "NORMAL": 1,
            "POSITION": 0,
            "TANGENT": 2,
            "TEXCOORD_0": 3
          },
          "indices": 4,
          "material": 0,
          "mode": 4
        }
      ]
    }
  ],
  "nodes": [
    {
      "children": [
        1
      ],
      "matrix": [
        1.0,
        0.0,
        0.0,
        0.0,
        0.0,
        2.220446049250313e-16,
        -1.0,
        0.0,
        0.0,
        1.0,
        2.220446049250313e-16,
        0.0,
        0.0,
        0.0,
        0.0,
        1.0
      ],
      "name": "Sketchfab_model"
    },
    {
      "children": [
        2
      ],
      "matrix": [
        1.0,
        0.0,
        0.0,
        0.0,
        0.0,
        0.0,
        1.0,
        0.0,
        0.0,
        -1.0,
        0.0,
        0.0,
        0.0,
        0.0,
        0.0,
        1.0
      ],
      "name": "penguin_prepped_fixed.fbx"
    },
    {
      "children": [
        3
      ],
      "name": "RootNode"
    },
    {
      "children": [
        4
      ],
      "name": "penguinobj:penguin19"
    },
    {
      "mesh": 0,
      "name": "penguinobj:penguin19_penguinobj:initialShadingGroup1_0"
    }
  ],
  "samplers": [
    {
      "magFilter": 9729,
      "minFilter": 9987,
      "wrapS": 10497,
      "wrapT": 10497
    }
  ],
  "scene": 0,
  "scenes": [
    {
      "name": "Sketchfab_Scene",
      "nodes": [
        0
      ]
    }
  ],
  "textures": [
    {
      "sampler": 0,
      "source": 0
    },
    {
      "sampler": 0,
      "source": 1
    },
    {
      "sampler": 0,
      "source": 2
    },
    {
      "sampler": 0,
      "source": 3
    }
  ]
}
